<?xml version="1.0" encoding="UTF-8"?>
<svg id="Layer_1" data-name="Layer 1" xmlns="http://www.w3.org/2000/svg" viewBox="0 0 843.35 317.79">
  <defs>
    <style>
      .cls-1 {
        fill: #81f57c;
      }

      .cls-2 {
        fill: none;
        stroke: #81f57c;
        stroke-miterlimit: 10;
      }
    </style>
  </defs>
  <g>
    <polygon class="cls-1" points="755.28 42.87 842.74 163.36 823.99 192.46 729.37 61.98 755.28 42.87"/>
    <polygon class="cls-1" points="729.37 61.98 718.78 69.79 441.09 69.79 397.74 42.15 401.29 39.88 439.45 15.46 717.13 15.46 755.27 42.85 755.28 42.87 729.37 61.98"/>
    <polygon class="cls-1" points="501.46 299.18 447.13 317.29 103.04 317.29 .41 172.41 103.04 21.5 350.54 21.5 350.27 39.81 109.28 39.61 21.74 169.4 115.31 299.18 501.46 299.18"/>
  </g>
  <g>
    <polyline class="cls-2" points=".41 172.41 103.04 317.29 447.13 317.29 501.46 299.18"/>
    <polyline class="cls-2" points=".41 172.41 103.04 21.5 350.54 21.5 350.27 39.81 350.27 39.85"/>
    <polyline class="cls-2" points="397.27 41.85 397.74 42.15 441.09 69.79 718.78 69.79 729.37 61.98 755.28 42.87 755.61 42.63"/>
    <polyline class="cls-2" points="729.27 61.85 729.37 61.98 823.99 192.46 824.27 192.85"/>
    <polyline class="cls-2" points="755.27 42.85 755.28 42.87 842.74 163.36 823.99 192.46 755.2 299.18 501.46 299.18 115.31 299.18 21.74 169.4 109.28 39.61 350.27 39.81 401.27 39.85"/>
    <polyline class="cls-2" points="396.99 42.63 397.74 42.15 401.29 39.88 439.45 15.46 717.13 15.46 755.27 42.85"/>
    <polyline class="cls-2" points="44.84 66.9 93.13 .5 157.5 .5"/>
    <polyline class="cls-2" points="810.31 250.89 767.07 317.29 697.65 317.29"/>
  </g>
</svg>