<?xml version="1.0" encoding="UTF-8"?>
<svg id="outline" xmlns="http://www.w3.org/2000/svg" viewBox="0 0 1366 768">
  <defs>
    <style>
      .cls-1 {
        fill: #81f57c;
      }

      .cls-2 {
        fill: none;
        stroke: #81f57c;
        stroke-miterlimit: 10;
      }
    </style>
  </defs>
  <g>
    <polygon class="cls-1" points="1029.51 264.52 1116.97 385.01 1098.22 414.11 1003.6 283.63 1029.51 264.52"/>
    <polygon class="cls-1" points="1003.6 283.63 993.01 291.44 715.32 291.44 671.97 263.8 675.52 261.53 713.68 237.11 991.36 237.11 1029.5 264.5 1029.51 264.52 1003.6 283.63"/>
    <polygon class="cls-1" points="775.69 520.83 721.36 538.94 377.27 538.94 274.64 394.06 377.27 243.15 624.77 243.15 624.5 261.46 383.51 261.26 295.97 391.05 389.54 520.83 775.69 520.83"/>
  </g>
  <g>
    <polyline class="cls-2" points="274.64 394.06 377.27 538.94 721.36 538.94 775.69 520.83"/>
    <polyline class="cls-2" points="274.64 394.06 377.27 243.15 624.77 243.15 624.5 261.46 624.5 261.5"/>
    <polyline class="cls-2" points="671.5 263.5 671.97 263.8 715.32 291.44 993.01 291.44 1003.6 283.63 1029.51 264.52 1029.84 264.28"/>
    <polyline class="cls-2" points="1003.5 283.5 1003.6 283.63 1098.22 414.11 1098.5 414.5"/>
    <polyline class="cls-2" points="1029.5 264.5 1029.51 264.52 1116.97 385.01 1098.22 414.11 1029.43 520.83 775.69 520.83 389.54 520.83 295.97 391.05 383.51 261.26 624.5 261.46 675.5 261.5"/>
    <polyline class="cls-2" points="671.22 264.28 671.97 263.8 675.52 261.53 713.68 237.11 991.36 237.11 1029.5 264.5"/>
    <polyline class="cls-2" points="319.07 288.55 367.36 222.15 431.73 222.15"/>
    <polyline class="cls-2" points="1084.54 472.54 1041.3 538.94 971.88 538.94"/>
  </g>
</svg>