<?xml version="1.0" encoding="UTF-8"?>
<svg id="Layer_11" data-name="Layer 11" xmlns="http://www.w3.org/2000/svg" viewBox="0 0 768 768">
  <defs>
    <style>
      .cls-1 {
        fill: #fff;
        stroke: #000;
        stroke-miterlimit: 10;
      }
    </style>
  </defs>
  <path class="cls-1" d="M240.66,264.81c-25.47,13.1-49.69,28.61-72.25,46.26-11.08,8.67-21.91,18.01-29.73,29.71-7.82,11.69-12.43,26.11-9.95,39.96,5.59,31.24,10.59,62.73,16.14,93.97,.52,2.93,1.05,5.88,2.16,8.63,1.15,2.83,2.89,5.38,4.64,7.89,23.46,33.58,51.45,63.98,82.98,90.13"/>
  <path class="cls-1" d="M195.99,432.56c-.83,10.35-1.63,20.98,1.34,30.93,2.02,6.75,5.68,12.86,9.39,18.85,16.71,26.97,35.04,52.94,54.85,77.73"/>
  <path class="cls-1" d="M305.04,285.76c.65-1.43,.65-4.31,.65-5.75,4.32-12.97,12.97-25.95,12.97-38.92,1.44-40.36-11.53-79.28-25.48-116.17"/>
  <path class="cls-1" d="M252.88,258.83c11.54-10.93,19.09-31.72,20.37-45.86,1.44-15.86-8.31-31.77-11.43-49.1-1.8-10-3.8-19.97-5.6-29.97"/>
  <path class="cls-1" d="M238.95,265.74l9.58-3.83c1.87-.75,3.95-1.71,4.58-3.63"/>
  <path class="cls-1" d="M403.17,367.82c45.22-1.33,89.9-4.21,134.67-3.77"/>
  <path class="cls-1" d="M568.57,369.58c22.58,22.67,44.61,45.91,65.06,70.52,18.5,22.26,35.84,45.79,57.91,64.51"/>
  <path class="cls-1" d="M396.24,445.91c41.53-1.9,82.96-5.47,124.37-9.04,7.34-.63,18.18-1.59,25.53-2.23,33.52,33.58,67.04,67.16,100.56,100.74"/>
  <path class="cls-1" d="M537.3,363.82c2.87-.15,5.73,.32,8.56,.8,.98,.16,1.95,.33,2.93,.49,1.37,.23,2.75,.46,4.12,.7,4.1,.72,8.17,1.55,12.22,2.49,1.29,.3,2.69,.68,3.48,1.75"/>
  <path class="cls-1" d="M383.23,436.65c43.54,16.33,89.66,23.53,130.48,44.86"/>
  <path class="cls-1" d="M534.82,497.01c23,56.4,41.86,114.49,56.39,173.64"/>
  <path class="cls-1" d="M321.05,505.52c42.29,8,82.65,16.65,125.89,23.85,10.09,1.44,18.74,0,27.39,2.88,2.88,0,4.32,2.88,5.77,4.32,14.41,30.27,30.27,60.54,41.8,92.25,5.77,17.3,8.65,34.59,19.52,49.12"/>
  <path class="cls-1" d="M512.81,480.93c4.93,3.42,9.87,6.86,14.4,10.8,1.24,1.08,2.45,2.2,3.82,3.12,1.38,.93,2.91,1.65,4.09,2.81"/>
  <path class="cls-1" d="M195.19,436.09c6,5.42,12.06,10.79,18.18,16.09"/>
  <path class="cls-1" d="M304.85,284.74c1.81,13.05,14.24,23.2,22.64,32.35,9.87,10.75,19.79,21.51,28.44,33.28"/>
  <ellipse class="cls-1" cx="142.8" cy="261.99" rx="62.7" ry="57.66"/>
  <path class="cls-1" d="M149.11,225.27c-9.53,4.28-17.68,11.1-25.23,18.32-7.37,7.05-14.45,14.82-18.2,24.3-1.77,4.48-2.75,9.22-3.57,13.97-.6,3.47-1.11,7.12,.09,10.43,1.73,4.79,6.79,7.76,11.85,8.36s10.13-.75,14.96-2.36c13-4.32,25.48-10.61,35.86-19.56s18.58-20.67,22.18-33.89c.82-3.02,1.41-6.16,1.07-9.27-2.11-19.2-26.71-15.84-39-10.32Z"/>
  <path class="cls-1" d="M82.59,279.84c-2.91,4.38-3.45,10.24-1.39,15.08,1.63,3.82,4.66,6.85,7.71,9.68,3.38,3.13,6.94,6.2,11.16,8.03s9.27,2.29,13.37,.2"/>
  <path class="cls-1" d="M201.75,240.48c2.91-4.38,3.45-10.24,1.39-15.08-1.63-3.82-4.66-6.85-7.71-9.68-3.38-3.13-6.94-6.2-11.16-8.03s-9.27-2.29-13.37-.2"/>
  <path class="cls-1" d="M209.04,558.83c6.82-12.21,19.57-20.92,33.43-22.84"/>
  <path class="cls-1" d="M256.43,135.36c10.49,.34,21.05-1.25,30.98-4.66,2.48-.85,5.09-1.96,6.46-4.19"/>
  <path class="cls-1" d="M257.44,135.09c-1.49,.03-2.94,.23-4.44,.16-1.12-3.9-1.83-7.59-2.81-11.64-.64-2.68,.43-5.98,0-8.65-.36-2.22,.62-6.51,0-8.65-1.45-5.05-9.99-5.32-13.97-8.08-2.78-1.92-5.23-4.61-7.4-7.17-1.28-1.52-3.9-3.31-2.63-5.47s4.73-2.38,6.96-2.12c1.52,.17,5.47,5.17,6.95,5.55,1,.25,5.42-.61,5.77,0,1.44,1.44-2.29-5.46-2.88-7.21s-2.31-4.04-2.88-5.77c-1.44-4.32-4.01-8.7-4.32-12.97-.23-3.22-4.2-13.35,0-14.41s8.13,10.9,9.45,13.78c1.96,4.28,3.72,8.48,6.06,12.53,0-3.38-1.17-7.04-1.9-10.3-.92-4.15-3.4-13.2-3.52-17.44-.07-2.36,.53-8.72,2.88-7.21,3.51,2.26,4.91,9.32,5.77,12.97,.53,2.29,3.54,12.78,4.28,15.01,.31,.94,.57,2.32,1.22,3,.27-4.11-.83-8.36-.91-12.5-.05-2.78-1.06-14.78,1.17-17.04,5.08-5.14,6.55,16.61,6.87,18.5,.47,2.79,2.16,6.44,3.22,8.89,.61-1.75,.02-3.91,0-5.77s-.16-3.89,0-5.77c.21-2.45-1.13-12.49,1.44-12.97,2.76-.52,5.08,10.54,5.56,12.41,.68,2.68,1.38,5.47,1.85,8.24,.96,5.6,1.61,11.07,2.47,16.61,.49,3.19,1.05,6.27,.91,9.64-.05,1.27-.35,2.75,.05,3.99,.45,1.4,1.72,2.73,2.52,3.97,1.33,2.07,2.76,3.53,3.94,5.69,1.66,3.05,3.3,6.77,4.32,10.09,.76,2.45,1.97,4.86,2.88,7.21,.51,1.31-.7,2.81-1.45,3.8-.37,.49-.98,.64-1.34,1.17"/>
  <path class="cls-1" d="M241.79,534.64c1.37-.6,2.62-1.35,4.04-1.86,2.54,3.16,4.62,6.3,7.07,9.66,1.62,2.22,1.9,5.69,3.33,7.98,1.19,1.91,1.94,6.24,3.33,7.98,3.28,4.1,11.27,1.07,16.01,2.09,3.3,.71,6.6,2.24,9.59,3.78,1.77,.91,4.87,1.56,4.53,4.03s-3.45,4.01-5.61,4.64c-1.47,.42-7.04-2.67-8.55-2.45-1.02,.15-4.76,2.65-5.32,2.22-1.89-.78,4.21,4.16,5.43,5.54s3.69,2.84,4.88,4.21c2.99,3.44,7.05,6.49,8.98,10.31,1.45,2.88,9.01,10.71,5.55,13.3s-11.7-6.93-14.03-9.08c-3.46-3.2-6.7-6.4-10.41-9.23,1.29,3.12,3.79,6.04,5.72,8.78,2.45,3.47,8.22,10.87,9.97,14.74,.97,2.16,2.87,8.26,.11,7.76-4.11-.74-8.12-6.71-10.31-9.75-1.37-1.91-8.19-10.43-9.73-12.21-.65-.75-1.41-1.92-2.28-2.3,1.34,3.9,3.99,7.4,5.65,11.18,1.12,2.55,6.67,13.23,5.48,16.18-2.71,6.7-12.44-12.81-13.46-14.43-1.51-2.4-4.47-5.11-6.4-6.96,.11,1.85,1.49,3.62,2.22,5.32,.76,1.77,1.65,3.53,2.22,5.32,.75,2.34,5.85,11.09,3.66,12.53-2.35,1.54-8.74-7.77-9.9-9.31-1.66-2.21-3.38-4.52-4.88-6.89-3.04-4.8-5.74-9.6-8.67-14.38-1.68-2.75-3.38-5.38-4.55-8.55-.44-1.2-.73-2.67-1.59-3.66-.96-1.12-2.64-1.86-3.85-2.69-2.03-1.39-3.91-2.2-5.82-3.74-2.71-2.18-5.65-4.98-7.87-7.65-1.64-1.97-3.69-3.73-5.43-5.54-.98-1.01-.43-2.87-.13-4.07,.15-.6,.66-.97,.79-1.59"/>
  <path class="cls-1" d="M496.68,441.69c.38,.49,.6-1.27,.91-2.43s.66-2.52,.97-3.7c.81-3.08,1.48-6.22,2.07-9.35,1.99-10.69,2.82-22.69,2.94-33.61,.11-9.84,3.26-22.54-.99-31.89,14.05,2.31,29.33-1.98,43.44-1.42,6.35,.25,13.45,2.16,19.36,4.22,7.78,2.71,13.48,3.51,18.27,10.82,4.04,6.17,9.19,12.44,11.91,19.23,2.64,6.6-3.56,16.76-6.7,22.7-5.52,10.44-12.36,22.98-21.27,30.76-1.76,1.54-5.53,5.71-8,5.46-2.34-.24-4.28-4.24-5.95-5.81-2.32-2.19-6.04-5.4-9.09-6.31-4.92-1.48-11.45,.53-16.28,1.28-9.32,1.44-19.26,2.07-28.54,1.71-1.26-.05-2.41-1.6-3.04-1.65Z"/>
  <path class="cls-1" d="M446.53,525.49c15.25-12.31,25.27-29.39,35.14-46.3,2.27-3.88,4.74-7.83,6.61-11.65,7.43,2.77,15.12,5.31,22.72,8.01,4.97,1.77,10.91,4.28,14.19,8.57,2.55,3.34,4.49,6.74,7.81,9.39,3.37,2.69,5.95,3.89,8.3,7.76,2.87,4.72,4.79,10.43,6.47,15.71,1.55,4.89,2.34,10.15,3.44,15.11,.43,1.96,.9,3.84,1.03,5.88,.21,3.31-1.82,5.52-4.05,8.19-3.43,4.12-8.08,6.87-12.46,9.84s-8.99,5.85-14.33,7.36c-5.77,1.64-11.49,3.4-17.38,4.63-3.9,.81-8.52,2.4-12.49,2.25-.93-2.18-1.79-3.97-2.57-6.37-.96-2.95-1.99-5.92-3.37-8.67-2.47-4.91-5.63-9.75-8.74-14.3-3.5-5.12-8.99-5.29-14.8-6.2-3.29-.52-6.73-1.13-10.07-1.37-1.74-.13-3.67,.33-5.28-.16-4.53-1.37-3.48-7.33-.18-7.69Z"/>
  <path class="cls-1" d="M124.56,384.75c11.29-4.4,26.97,7.31,36.33,12.68,10.33,5.92,19.45,15,25.64,25.08,3.2,5.22,10.6,13.11,10.05,19.49,4.52-2.01,1.81-17.64,.58-22.13-2.61-9.5-7.75-19.38-14.78-26.22-11.5-11.19-30.58-22.77-46.87-16.21-7.87,3.17-13.47,8.12-10.95,7.3Z"/>
  <path class="cls-1" d="M238.35,263.68c22.95-.07,38.4,15.3,57.32,25.49,4.31,2.32,8.8,4.26,13.05,6.61,6.21-6.07-17.29-17.83-21.26-20.62-9.58-6.74-22.78-14.58-34.55-16.27-6.55-.94-10.12,.04-14.57,4.8Z"/>
  <path class="cls-1" d="M327.89,503.96c.49,4.08-3.21,6.58,.49,8.8,2.4,1.44,6.95,1.15,9.71,1.38,4.74,.4,9.44,1.13,14.07,1.93,9.41,1.63,18.39,4.7,27.68,6.36,5.37,.96,10.34,.56,15.86,.56,2.67-6.1,6.61-11.62,9.1-17.83,.85-2.11,2.49-5.52,1.02-7.23-2-2.31-9.39-1.89-12.3-2.55-5.5-1.25-11.09-2.93-16.73-3.3-5.74-.38-11.67,.65-17.33-.31-4.45-.75-8.81-2.22-13.21-3.14-2.95-.62-8.59-3.48-11.4-2.95-5.16,.97-7.63,15.9-6.94,18.28Z"/>
  <path class="cls-1" d="M194.46,381.05c12.64,6.9,25.94,35.78,43.52,41.77,16.31,5.55,40.22-29.34,49.34-41.77,7.85-10.69,28.35-26.48,22.13-40.17-5.68-12.51-18.95-18.52-29.83-25.45-12.12-7.72-14.23-8.25-25.79,.76-13.96,10.89-24.37,24.55-37.15,36.49-10.03,9.38-12.28,22.95-22.23,28.37Z"/>
  <path class="cls-1" d="M354.2,347.55c2.9,7.82,16.62,11.93,23.07,16.98,5.18,4.05,6.29,6.24,13.3,6.08,5.52-.12,11.21-2.34,16.64-3.55"/>
  <path class="cls-1" d="M315.49,502.3c3.16,1.23,6.37,2.36,9.64,3.26"/>
  <path class="cls-1" d="M247.82,473.85c20.34,12.28,44,18.97,65.94,27.76"/>
  <path class="cls-1" d="M201.73,440.71c3.78,5.08,9.27,8.66,14.61,11.91"/>
  <path class="cls-1" d="M171.21,396.54c-2.7-15.56-28.35-27.35-42.63-27.4,22.86-13.39,62.74,18.02,64.56,41.71"/>
  <path class="cls-1" d="M216.05,282.32c-5.8,3.04-13.88,30.97-23.48,39.26-15.08,13.03-32.21,9.42-49.84,11.1,5.86-12.11,14.93-6.88,25.04-10.21,6.41-2.11,13.74-7.38,18.91-11.99,7.19-6.41,8.63-12.42,12.51-20.13,4.93-9.82,6.32-6.94,16.61-11.52-.34,2.35,1.56,.99,.25,3.48Z"/>
  <path class="cls-1" d="M249.55,124.66c-1.65,.8-2.82,3.77-2.15,8.31,9.99,.42,50.25,1.49,51.79-11.82,1.16-10-45.79,3.48-49.64,3.51Z"/>
  <path class="cls-1" d="M203.15,563.23c8.95,17.03,56.19-14.94,49.12-28.12-19.51-2.46-48.01,14.51-49.12,28.12Z"/>
  <path class="cls-1" d="M312.03,427.2c5.03-6.31,9.88-12.73,14.33-19.37,12.15-18.14,19.61-35.75,28.87-54.99,18.43,4.47,10.07,16,.13,28.24-8.29,10.22-15.96,20.01-22.8,31.23-11.42,18.73-20.93,38.58-33.12,57.23-6.36,9.73-14.79,16.27-23.91,23.34-5.72-4.3-16.16-1.74-12.91-11.27,14.5-8.45,25.52-25.55,36.06-38.17,2.89-3.46,9.48-15.14,14.09-15.82,4.89-.73,12.26,8.29,17.04,9.96,7.47-11.86,12.42-24.92,19.31-36.86-9.23-.1-17.46-4.89-27.73-4.27-5,10.7-11.06,20.88-17.74,30.49,4.36,1.84,9.01,2.94,13.45,5.46"/>
  <path class="cls-1" d="M576.58,606.3c-22.36,.34-43.91,14.26-66.35,13.28,8.91,23.92,12.61,44.7,26.74,65.32,4.6,6.71,6.46,15.44,11.39,21.41,6.69,8.09,13.73,5.42,24.12,3.16,19.21-4.16,49.51-7.23,62.94-23.53,18.1-21.98,1.12-35.55-22.27-35.31-15.11,.15-21.24,3.53-24.85-13.25-2.34-10.87-2.89-20.24-7.33-30.94-2.76-1.34-1.48-.2-4.39-.15Z"/>
  <path class="cls-1" d="M614.72,523.38c10.44,15.07,29.62,29.32,45.98,37.68,19.44,9.93,34.07-5.96,48.44-18.84,12.04-10.79,33.58-39.48,13.9-54.04-6.37-4.71-19.03-3.05-26.2-1.17-10.5,2.74-8.88,4.07-18.24-1.19s-5.5-6.75-14.91-.73c-6.89,4.41-13.13,9.76-19.43,15.04-7.12,5.97-31.75,23.33-29.53,23.25Z"/>
  <path class="cls-1" d="M274.3,577.8c-1.48-1.71-.18-5.86,.95-7.56,4.74,.33,1.8,4.61,1.43,7.05-.62,4.13,4.85,5.82,5.59,9.77,.31,1.69,.18,3.3-.61,4.85-.42,.82-4,3.71-3.99,3.99,.19,3.66-6.25,6.67-9.24,7.2-.8,3.49-7.25,4.46-10.25,4.51-.68,3.38-6.81,4.77-8.32,1.55"/>
  <path class="cls-1" d="M125.31,317.65c4.83,4.18,14,7.52,15.34,14.32"/>
  <path class="cls-1" d="M204.99,252.43c-.04,9.24,10.15,21.07,17.61,23.71"/>
  <path class="cls-1" d="M335.76,355.34c12.34-12.08,4.35-46.55-15.75-45.71"/>
  <path class="cls-1" d="M342.88,361.15c8.66-8.32,6.13-31.18,1.87-40.86-4.71-10.72-14.02-17.42-22.53-24.79-6.05-5.24-11.98-7.87-17.75-10.99"/>
  <path class="cls-1" d="M254.42,452.01c-10.18,4.75-15.91,14.49-28.83,11.33-8.36-2.04-21.96-9.99-22.41-19.64"/>
  <path class="cls-1" d="M263.88,457.2c-8.04,10.62-17.98,15.4-31,16.19-11.69,.71-18.58-5.36-27.43-12.02-4.66-3.51-10.8-7.84-11.64-14.04"/>
  <path class="cls-1" d="M401.92,381.87c14.68-.19,30.48-1.06,44.92-3.29,7.58-1.17,19.37-.36,20.7-9.33,1.89-12.76-8.62-9.46-17.47-10.7-10.31-1.45-21.97,.23-32.61,.34-5.54,.06-10.46-1.09-13.96,3.62-3,4.03-5.31,13.97-1.58,19.36Z"/>
  <path class="cls-1" d="M445.26,530.87c9.09,.79,19.46-12.28,24.68-18.73,3.56-4.4,6.17-8.56,8.55-13.71,3.67-7.93,10.59-17.58,11.83-26.16"/>
  <path class="cls-1" d="M500.92,446.08c12.53-16.51,14.43-33.09,13.59-53.39-.37-8.94-1.64-22.3-5.2-30.38"/>
  <path class="cls-1" d="M492.32,563.54c19.04-2.61,44.74-14.77,55.11-31.53"/>
  <path class="cls-1" d="M554.21,449.89c13.41-6.81,20.08-22.96,27.9-34.95,4.4-6.74,10.13-14.74,10.63-23.04"/>
  <path class="cls-1" d="M238.2,450.93c4.23,3.13,16.56,19.15,22.96,17.92,4.21-.81,12.42-14.05,14.62-17.8-4.89-3.93-12.31-14.61-18.24-13.8-4.61,.63-13.41,7.78-19.34,13.67Z"/>
  <path class="cls-1" d="M321.12,357.95c5.35,1.32,16.62,15.46,21.77,12.76,3.73-1.96,3.56-13.11,5.07-16.56-4.52-1.51-10.87-9.51-15.59-9.39-4.13,.11-7.17,9.59-9.21,13.3-.75,.54-.4-.22-2.05-.1Z"/>
  <path class="cls-1" d="M142.54,461.73c2.44-1.43,14.42,2.25,18.17,2.91,5.18,.91,10.38,2.13,15.52,2.85,8.46,1.18,22.16-3.12,27.05,5.02,2.6,4.32,3.16,9.66,5.82,13.91-4.9,5.57-23.54,6.22-30.76,6.93-8.23,.81-16.67,2.22-24.85,2.48-9.2,.29-10.47-4.9-13.19-13.2-2-6.11-6.25-21.33,2.23-20.9Z"/>
  <path class="cls-1" d="M266.91,219.25c3.39-2.1,7.77-.47,11.5-.75,4.38-.33,8.62-1.01,13.06-1.05,5.19-.04,10.37-.1,15.56-.16,9.12-.09,14.27,.53,13.09-10.49-.73-6.77-1.18-15.07-7.82-17.51-7.74-2.84-16.67,.17-24.49,.77-6.38,.49-12.8-.08-19.14,.69s-7.46,2.66-7.1,9.1c.3,5.33,.41,13.99,5.35,19.38Z"/>
  <path class="cls-1" d="M114.14,317.69c-7.55,3.27-17.91,27.08-25.96,34.92-6.86,6.68-14.76,13.1-18.61,22.26-6.26,14.91,7.53,17.66,18.76,23.6s19.7,14.58,29.95,22.88c16.48,13.35,38.86,23.72,57.61,33.99,19.81,10.84,37.11,22.61,56.08,34.54,15.81,9.94,49.8,12.14,68.64,3.41,3.12,29.41-45.41-7.5-53.54-11.09-16.93-7.49-32.72-18.41-49.28-29.11-19.67-12.71-39.65-24.74-59.22-37.58-12.35-8.1-39.67-26.05-44.3-40.88-4.15-13.28,25.73-38.59,33.36-48.81"/>
  <path class="cls-1" d="M104.36,296.91c4.72,1.86,8.28,6.54,13.28,8.7,3.81,1.65,7.47,2.68,11.49,3.63,8.75,2.09,15.69,1.72,24.29-1.72,18.41-7.37,32.17-21.23,35.17-41.43,1.14-7.69,4.22-31.19-1.61-37.35"/>
  <path class="cls-1" d="M201.16,540.22c9.49,7.41,17.81,16.49,26.12,25.26,4.37,4.61,4.54,5.61,9.6,3.01,4.08-2.1,10.21-6.81,13.66-10.15-5.04-12.14-22.94-20.29-30.75-30.9-4.6,4.11-15.96,7.24-18.64,12.79Z"/>
  <path class="cls-1" d="M245.82,367.49c4.94,3.64,8.91,11.44,12.86,16.38,1.49,1.86,3.45,5.52,6.16,5.77,6.54,.6,17.67-16.09,21.7-20.72,3.82-4.39,15.85-15.36,13.9-21.24-1.53-4.59-10.08-10.11-13.83-13s-5.06-3.74-9.26-1.23c-7.49,4.48-14.1,11.91-20.2,18.06-4.9,4.93-9.16,12.41-11.33,15.98Z"/>
  <path class="cls-1" d="M241.34,400.36c-6.44,12.98,15.6,13.69,12.69,3.12-2.2-7.99-10.55-2.48-15.31-2.65"/>
  <path class="cls-1" d="M226.7,381.69c-10.51,10.79,16.86,14.65,12.73,1.69-2.52-7.9-12.17-1.81-15.76,1.4"/>
  <path class="cls-1" d="M206.53,377.95c5.7,6.83,15.11-4.27,20.68-8.41,3.58-2.66,14.1-9.98,12.04-15.12-3.12-7.78-13.39,3.94-16.73,6.21-4.37,2.96-12.77,7.56-15.98,17.32Z"/>
  <path class="cls-1" d="M258.54,326.65c-3.8,1.25-20.93,14.84-19.09,19.9,1.74,4.77,13.19-3.44,15.51-5.22,4.2-3.21,10.45-9.69,11.86-14.89,2.34-8.64-7.68-.86-8.29,.22Z"/>
  <path class="cls-1" d="M548.14,702.14c20.3-.21,85.62-2.43,85.05-34.07"/>
  <path class="cls-1" d="M664.14,562.21c19.56-7.97,37.14-19.81,47.98-38.11,3.85-6.5,13.93-32.61,9.4-34.81"/>
  <path class="cls-1" d="M336.15,497.92c2.95,2.39-3.86,11.75,6.39,16.12,2.78-4.38,3.64-9.72,2.94-14.83-2.11-.35-5.86-2.38-6.96-2.51"/>
  <path class="cls-1" d="M409.53,365.53c-1.93,7.53,2.9,12.5,10.57,10.39,2.71-7.32,1.94-16.13-8.24-13.97"/>
  <path class="cls-1" d="M501.25,522.34c17.45,3.42,22.33-17.2,27-27.55"/>
  <path class="cls-1" d="M554.64,406.76c9.13-4.61,30.98-16.45,25.8-28.73"/>
</svg>