<?xml version="1.0" encoding="UTF-8"?>
<svg id="Layer_1" data-name="Layer 1" xmlns="http://www.w3.org/2000/svg" viewBox="0 0 1926.42 1193.4">
  <defs>
    <style>
      .cls-1 {
        fill: #fff;
      }

      .cls-2 {
        fill: #726a56;
      }
    </style>
  </defs>
  <g id="Layer_3" data-name="Layer 3">
    <path class="cls-2" d="M1926.42,908.61c-77.7,9-196.2,2.4-341.6,6.8-131.6,4-164.3-1.4-430.2-4.5-239.5-2.8-232.2,1.4-419-2.3-216.4-4.2-238-10.1-335.6-6.8-170.8,5.9-307.6,1.3-393.6,20.3v231.2H1926.42v-244.7Z"/>
  </g>
  <g id="Layer_1-2" data-name="Layer 1">
    <g>
      <path class="cls-1" d="M742.92,734.11l3.2,21.5-8.7,63.78-9.3-90.07,.5,.39c0-.1-.1-.2-.2-.3l14.5,4.7Z"/>
      <path class="cls-1" d="M734.62,844.81c-2.6,1.2-5.3-.7-6.5-.9-.8-.1-1.9-.3-2.8-.7-.02,0-.05-.01-.08-.02v-.08c.07-.21,.08-.38,.08-.59l11.6-23.11c.1,0,.3,.1,.4,.1,3.3,1.5,5.5,10.5,3.3,17-.6,1.9-2.7,6.8-6,8.3Z"/>
      <polygon class="cls-1" points="732.72 969.81 732.72 969.91 730.14 971.89 730.12 971.81 732.72 969.81"/>
      <polygon class="cls-1" points="732.02 958.11 732.72 965.51 731.92 958.11 714.52 949.51 732.02 958.11"/>
      <polygon class="cls-1" points="730.14 971.89 731.82 978.31 731.8 978.33 730.12 971.91 730.14 971.89"/>
      <polygon class="cls-1" points="730.12 971.91 731.8 978.33 722.62 984.81 702.72 986.21 678.96 985.42 729.87 971.55 730.12 971.91"/>
      <path class="cls-1" d="M728.21,668.96c6.04,12.98,5.27,29.97,3.11,32.65,2.08-2.68,2.89-19.67-3.11-32.65Z"/>
      <path class="cls-1" d="M731.09,701.85c.09-.09,.16-.16,.23-.24-.06,.08-.14,.16-.23,.24Z"/>
      <polygon class="cls-1" points="730.02 971.51 730.12 971.91 729.87 971.55 730.02 971.51"/>
      <path class="cls-1" d="M728.62,729.71l-.5-.39h0s.3,.09,.3,.09c.1,.1,.2,.2,.2,.3Z"/>
      <path class="cls-1" d="M723.15,704.69c2.93-1.01,6.61-1.76,7.93-2.84-1.25,1.09-4.93,1.83-7.93,2.84Z"/>
      <path class="cls-1" d="M728.12,729.31h0s-13.6-10.5-13.6-10.5l.6,.3c6.6,3.3,10.8,7.2,13.3,10.3l-.3-.1Z"/>
      <path class="cls-1" d="M727.1,666.77c.4,.72,.77,1.45,1.11,2.19-.35-.74-.72-1.48-1.11-2.19Z"/>
      <path class="cls-1" d="M725.85,664.67c.45,.68,.86,1.38,1.25,2.09-.4-.72-.81-1.41-1.25-2.09Z"/>
      <path class="cls-1" d="M725.32,842.41v.13s0-.13,0-.13Z"/>
      <path class="cls-1" d="M725.31,842.54v-.02c.01,.21,0,.38-.06,.59l.06-.57Z"/>
      <path class="cls-1" d="M725.31,842.54l-.06,.57s0,.04-.02,.07c-.07-.02-.14-.07-.21-.07l.29-.57Z"/>
      <path class="cls-1" d="M725.23,843.18s.02-.05,.02-.07v.08s0,0-.02-.01Z"/>
      <path class="cls-1" d="M725.22,843.21s.01-.02,.01-.03h.01s-.09,.89-.09,.89c.03-.29,.05-.58,.07-.86Z"/>
      <path class="cls-1" d="M721.82,876.79l3.33-32.72c-.68,8.69-1.81,20.06-3.33,32.72Z"/>
      <path class="cls-1" d="M723.15,704.69c-.21,.07-.42,.14-.63,.22,.21-.08,.42-.15,.63-.22Z"/>
      <path class="cls-1" d="M725.32,843.21c-.75,9.8-2.1,23.2-3.96,38.11l.46-4.53c1.52-12.66,2.65-24.03,3.33-32.72l.09-.88s.06,.02,.08,.02Z"/>
      <path class="cls-1" d="M721.04,705.41c.53-.16,1.03-.32,1.48-.5-.45,.18-.95,.34-1.48,.5Z"/>
      <path class="cls-1" d="M677.81,661.77c11.68-8.68,30.77-11.65,41.51-4.06,2.62,1.85,4.77,4.24,6.53,6.96,.44,.68,.85,1.37,1.25,2.09,.01,.01,0,.01,0,.01,.39,.71,.76,1.45,1.11,2.19,6,12.98,5.19,29.97,3.11,32.65-.07,.08-.14,.15-.23,.24-.01-.01-.01,0-.01,0-1.32,1.08-5,1.83-7.93,2.84-.21,.07-.42,.14-.63,.22-.45,.18-.95,.34-1.48,.5-3.76,1.12-9.43,2.04-14.42,5.1l-26.2-2.9-.1-.1c-.06-.04-.12-.09-.18-.13h0s-.02-.05-.02-.07v.05c-3.22-2.38-6.05-5.42-8.2-8.85-4.5-7.3-6.4-17.6-2.7-26.4,1.05-2.49,2.64-4.79,4.64-6.88l1.32,2.59,4.54-2.32-1.91-3.73Z"/>
      <path class="cls-1" d="M714.32,923.91c.4-7.3,2.4-8.9,4.1-20.8,1.09-7.45,2.07-14.79,2.94-21.79l-6.88,67.6c-.48-6.8-.74-15.29-.16-25.01Z"/>
      <path class="cls-1" d="M706.62,710.51c4.99-3.06,10.66-3.98,14.42-5.1-3.76,1.14-9.43,2.12-14.42,5.1Z"/>
      <polygon class="cls-1" points="714.69 718.51 706.99 714.16 706.99 714.15 714.69 718.51"/>
      <path class="cls-1" d="M714.48,948.92c.01,.2,.03,.39,.04,.59l-.09-.06,.05-.53Z"/>
      <path class="cls-1" d="M714.43,949.45v.06s-.01-.04-.01-.06h.01Z"/>
      <path class="cls-1" d="M714.52,949.51l17.4,8.6,.8,7.4v4.3l-2.6,2,.02,.08-.02,.02-.1-.4-.15,.04-15.85-22.34,.4,.24v0s.1,.06,.1,.06Z"/>
      <path class="cls-1" d="M718.32,903.11c1.32-9.07,2.5-17.98,3.5-26.32l-.46,4.53c-.87,7-1.85,14.34-2.94,21.79-1.7,11.9-3.7,13.5-4.1,20.8-.58,9.72-.32,18.21,.16,25.01l-.05,.53h-.01c-.5-6.89-.8-15.57-.2-25.54,.4-7.3,2.4-8.9,4.1-20.8Z"/>
      <path class="cls-1" d="M706.99,714.16l.03,.15c-.1,0-.1-.1-.1-.1-.02-.04-.03-.07-.04-.11l.11,.06Z"/>
      <path class="cls-1" d="M706.99,714.15h0s-.11-.05-.11-.05c-.01,0-.01-.01-.01-.01l.05,.02,.07,.04Z"/>
      <path class="cls-1" d="M706.92,714.11l-.05-.02c-.28-.71-.46-1.42-.53-2.16,.08,.75,.27,1.5,.58,2.18Z"/>
      <path class="cls-1" d="M706.32,710.51l.67,3.64-.07-.04c-.31-.68-.5-1.43-.58-2.18-.05-.46-.06-.93-.02-1.42Z"/>
      <polygon class="cls-1" points="702.72 986.21 722.62 984.81 731.8 978.33 731.82 978.41 722.62 984.91 702.72 986.31 678.72 985.51 678.62 985.51 678.96 985.42 702.72 986.21"/>
      <path class="cls-1" d="M680.82,709.01c.5,2.1,.6,4.4,0,6.5l-.7-8.15s.01,.01,.02,.01h0c.03,.05,.08,.07,.08,.14,.3,.4,.5,1,.6,1.5Z"/>
      <path class="cls-1" d="M680.92,715.61h.1l-9.68,3.49c2.11-1.54,5.01-2.75,7.73-3.26,.63-.12,1.25-.19,1.85-.23Z"/>
      <path class="cls-1" d="M680.12,707.31s.01,.04,.02,.06c-.01,0-.02,0-.02-.01v-.05Z"/>
      <path class="cls-1" d="M677.81,661.77l1.91,3.73-4.54,2.32-1.32-2.59c1.19-1.23,2.51-2.39,3.95-3.46Z"/>
      <path class="cls-1" d="M678.55,985.22l.17,.09c-.4,0-.87-.07-1.37-.19,.43,.09,.84,.13,1.2,.1Z"/>
      <path class="cls-1" d="M675.54,657.32l2.27,4.45c-1.44,1.07-2.76,2.23-3.95,3.46l-2.85-5.57c.2,.04,.4,.05,.61,.05,1.71,0,3.19-.97,3.92-2.39Z"/>
      <path class="cls-1" d="M671.34,719.1c2.11-1.62,5.01-2.78,7.73-3.26-2.72,.51-5.62,1.72-7.73,3.26Z"/>
      <path class="cls-1" d="M673.02,982.51c.82,1.2,2.66,2.18,4.25,2.59-1.61-.35-3.5-1.39-4.25-2.59Z"/>
      <path class="cls-1" d="M673.39,653.12l2.15,4.2c-.73,1.42-2.21,2.39-3.92,2.39-.21,0-.41-.01-.61-.05l-2.16-4.22,4.54-2.32Z"/>
      <path class="cls-1" d="M672.72,982.01l5.83,3.21c-.36,.03-.77-.01-1.2-.1-.03-.01-.06-.02-.08-.02-1.59-.41-3.43-1.39-4.25-2.59-.1-.2-.2-.3-.3-.5Z"/>
      <path class="cls-1" d="M669.02,928.01c.1-3.9,.3-44.2,0-47.1-1.9-16.77-.93-23.92-.83-31.76l4.43,133.36c-.7-.4-2.9-7.3-3.6-18-1.2-17.3-.3-21.4,0-36.5Z"/>
      <path class="cls-1" d="M671.01,659.66c-2.14-.29-3.79-2.13-3.79-4.35,0-2.43,1.97-4.4,4.4-4.4s4.4,1.97,4.4,4.4c0,.73-.17,1.41-.48,2.01l-2.15-4.2-4.54,2.32,2.16,4.22Z"/>
      <path class="cls-1" d="M668.92,880.91c-2.14-18.85-.65-25.54-.83-34.81l.1,3.05c-.1,7.84-1.07,14.99,.83,31.76,.3,2.9,.1,43.2,0,47.1-.3,15.1-1.2,19.2,0,36.5,.7,10.7,2.9,17.6,3.6,18h-.1c-.6-.4-2.9-7.3-3.6-18-1.2-17.3-.3-21.4,0-36.5,.1-3.8,.3-44.2,0-47.1Z"/>
      <path class="cls-1" d="M668.09,846.1l-.06-1.98c.03,.68,.05,1.33,.06,1.98Z"/>
      <path class="cls-1" d="M663.45,814.1l5.07,30.41c-.14-.07-.28-.19-.39-.29,0-.07-.01-.14-.01-.21-.6-.7-.8-1.5-1.4-2.4-3.7-5.5-3.3-8.4-3.7-13.9-.39-5.08-.59-9.4,.43-13.61Z"/>
      <path class="cls-1" d="M668.03,844.12h-.01c-.6-.71-.8-1.61-1.4-2.41-3.7-5.6-3.3-8.4-3.7-13.9-.4-5.2-.5-9.7,.5-13.9l.03,.19c-1.02,4.21-.82,8.53-.43,13.61,.4,5.5,0,8.4,3.7,13.9,.6,.9,.8,1.7,1.4,2.4,0,.07,.01,.14,.01,.21l-.1-.1Z"/>
      <path class="cls-1" d="M659.22,717.31c2.7-.2,7.8,1,12,2h.2l-7.99,94.4c-5.57-.02-10.93-1.52-14.71-5-5.6-5.2-9.8-.9-10.2-30.5-.3-26-3.1-42.9,1.8-50.4,.34-.52,.71-1.01,1.09-1.48,.16-.2,.33-.4,.5-.59,5.81-6.49,14.68-8.16,17.31-8.43Z"/>
      <path class="cls-1" d="M659.32,717.21c2.6-.2,7.7,.9,12,2v-.1h.02s9.68-3.5,9.68-3.5h-.1v-.1c.6-2.1,.5-4.4,0-6.5-.1-.5-.3-1.1-.6-1.5l.1,.1,26.2,2.9h-.3c-.04,.49-.03,.96,.02,1.42,.07,.74,.25,1.45,.53,2.16,0,0,0,.01,.01,.01,.01,.04,.02,.07,.04,.11,0,0,0,.1,.1,.1l-.03-.15,7.7,4.35-7.7-4.36,8.33,4.66-.1,.3c6.6,3.3,10.8,7.2,13.3,10.3l14.5,4.7,3.2,21.5-8.8,63.78,8.7-63.78-3.2-21.5-14.5-4.7c-2.5-3.1-6.7-7-13.3-10.3l-.6-.3,13.6,10.51,9.3,90.07v.02l-.1,.1c-.1,0-.3-.1-.4-.1l-11.6,23.11v.02s-.3,.57-.3,.57c.07,0,.14,.05,.21,.07,0,.01-.01,.02-.01,.03-.02,.28-.04,.57-.07,.86l-3.33,32.72c-1,8.34-2.18,17.25-3.5,26.32-1.7,11.9-3.7,13.5-4.1,20.8-.6,9.97-.3,18.65,.2,25.54l-.4-.24,15.85,22.34-50.91,13.87h-.24v-.21c-.06,0-.11,.01-.17,.01l-5.83-3.21c.1,.2,.2,.3,.3,.5h-.4l-4.43-133.36c.03-1.59,.02-3.2-.06-4.93,.11,.1,.25,.22,.39,.29l-5.07-30.41c.02-.1,.05-.19,.07-.29v-.1h-.09l7.99-94.4h-.2c-4.2-1-9.3-2.2-12-2-2.63,.27-11.5,1.94-17.31,8.43,5.73-6.59,14.77-8.35,17.41-8.53Z"/>
      <path class="cls-1" d="M648.72,808.71c3.78,3.48,9.14,4.98,14.71,5v.1c-5.61,0-11.01-1.5-14.81-5-5.6-5.2-9.8-.9-10.2-30.5-.4-26.1-3.2-42.9,1.8-50.4,.37-.55,.77-1.08,1.19-1.58-.38,.47-.75,.96-1.09,1.48-4.9,7.5-2.1,24.4-1.8,50.4,.4,29.6,4.6,25.3,10.2,30.5Z"/>
    </g>
  </g>
</svg>