<?xml version="1.0" encoding="UTF-8"?>
<svg id="Layer_2" data-name="Layer 2" xmlns="http://www.w3.org/2000/svg" viewBox="0 0 1920 502.4">
  <defs>
    <style>
      .cls-1 {
        fill: #fff;
      }

      .cls-2 {
        fill: #726a56;
      }
    </style>
  </defs>
  <g id="Layer_1-2" data-name="Layer 1">
    <g id="Layer_1-3" data-name="Layer 1">
      <g id="Layer_3" data-name="Layer 3">
        <path class="cls-2" d="M1920,257.7c-77.7,9-196.2,2.4-341.6,6.8-131.6,4-164.3-1.4-430.2-4.5-239.5-2.8-232.2,1.4-419-2.3-216.4-4.2-238-10.1-335.6-6.8-170.8,5.9-307.6,1.3-393.6,20.3v231.2H1920v-244.7Z"/>
      </g>
      <g id="Layer_1-4" data-name="Layer 1">
        <g>
          <path class="cls-1" d="M736.5,83.2l3.2,21.5-8.7,63.8-9.3-90.1,.5,.4c0-.1-.1-.2-.2-.3l14.5,4.7Z"/>
          <path class="cls-1" d="M728.2,193.9c-2.6,1.2-5.3-.7-6.5-.9-.8-.1-1.9-.3-2.8-.7h-.1v-.1c.1-.2,.1-.4,.1-.6l11.6-23.1c.1,0,.3,.1,.4,.1,3.3,1.5,5.5,10.5,3.3,17-.6,1.9-2.7,6.8-6,8.3Z"/>
          <polygon class="cls-1" points="726.3 318.9 726.3 319 723.7 321 723.7 320.9 726.3 318.9"/>
          <polygon class="cls-1" points="725.6 307.2 726.3 314.6 725.5 307.2 708.1 298.6 725.6 307.2"/>
          <polygon class="cls-1" points="723.7 321 725.4 327.4 725.4 327.4 723.7 321"/>
          <polygon class="cls-1" points="723.7 321 725.4 327.4 716.2 333.9 696.3 335.3 672.5 334.5 723.5 320.6 723.7 321"/>
          <path class="cls-1" d="M721.8,18.1c6,13,5.3,30,3.1,32.6,2.1-2.7,2.9-19.7-3.1-32.6Z"/>
          <path class="cls-1" d="M724.7,50.9l.2-.2c-.1,.1-.1,.2-.2,.2Z"/>
          <polygon class="cls-1" points="723.6 320.6 723.7 321 723.5 320.6 723.6 320.6"/>
          <path class="cls-1" d="M722.2,78.8l-.5-.4h0l.3,.1c.1,.1,.2,.2,.2,.3Z"/>
          <path class="cls-1" d="M716.7,53.8c2.9-1,6.6-1.8,7.9-2.8-1.2,1-4.9,1.8-7.9,2.8Z"/>
          <path class="cls-1" d="M721.7,78.4h0l-13.6-10.5c.2,.1,.4,.2,.6,.3,6.6,3.3,10.8,7.2,13.3,10.3l-.3-.1Z"/>
          <path class="cls-1" d="M720.7,15.9c.4,.7,.8,1.4,1.1,2.2-.4-.8-.7-1.5-1.1-2.2Z"/>
          <path class="cls-1" d="M719.4,13.8c.5,.7,.9,1.4,1.2,2.1-.3-.8-.7-1.5-1.2-2.1Z"/>
          <path class="cls-1" d="M718.9,191.6h0c0,.2,0,.4-.1,.6l.1-.6Z"/>
          <path class="cls-1" d="M718.9,191.6l-.1,.6v.1c-.1,0-.1-.1-.2-.1l.3-.6Z"/>
          <path class="cls-1" d="M718.8,192.3h0l-.1,.9c.1-.3,.1-.6,.1-.9Z"/>
          <path class="cls-1" d="M715.4,225.9l3.3-32.7c-.7,8.7-1.8,20-3.3,32.7Z"/>
          <path class="cls-1" d="M716.7,53.8c-.2,.1-.4,.1-.6,.2,.2-.1,.4-.1,.6-.2Z"/>
          <path class="cls-1" d="M718.9,192.3c-.8,9.8-2.1,23.2-4,38.1l.5-4.5c1.5-12.7,2.6-24,3.3-32.7l.2-.9c-.1,0,0,0,0,0Z"/>
          <path class="cls-1" d="M714.6,54.5c.5-.2,1-.3,1.5-.5-.4,.2-.9,.3-1.5,.5Z"/>
          <path class="cls-1" d="M671.4,10.9c11.7-8.7,30.8-11.7,41.5-4.1,2.6,1.8,4.8,4.2,6.5,7,.4,.7,.9,1.4,1.2,2.1h0c.4,.7,.8,1.4,1.1,2.2,6,13,5.2,30,3.1,32.6-.1,.1-.1,.2-.2,.2h0c-1.3,1.1-5,1.8-7.9,2.8-.2,.1-.4,.1-.6,.2-.4,.2-.9,.3-1.5,.5-3.8,1.1-9.4,2-14.4,5.1l-26.2-2.9-.1-.1c-.1,0-.1-.1-.2-.1h0v-.1h0c-3.2-2.4-6-5.4-8.2-8.8-4.5-7.3-6.4-17.6-2.7-26.4,1-2.5,2.6-4.8,4.6-6.9l1.3,2.6,4.5-2.3-1.8-3.6Z"/>
          <path class="cls-1" d="M707.9,273c.4-7.3,2.4-8.9,4.1-20.8,1.1-7.5,2.1-14.8,2.9-21.8l-6.9,67.6c-.4-6.8-.7-15.3-.1-25Z"/>
          <path class="cls-1" d="M700.2,59.6c5-3.1,10.7-4,14.4-5.1-3.7,1.1-9.4,2.1-14.4,5.1Z"/>
          <polygon class="cls-1" points="708.3 67.6 700.6 63.2 700.6 63.2 708.3 67.6"/>
          <path class="cls-1" d="M708.1,298v.6l-.1-.1,.1-.5Z"/>
          <path class="cls-1" d="M708.1,298.6l17.4,8.6,.8,7.4v4.3l-2.6,2v.1h0l-.1-.4h-.1l-15.9-22.3,.5,.3q-.1,0,0,0h0Z"/>
          <path class="cls-1" d="M711.9,252.2c1.3-9.1,2.5-18,3.5-26.3l-.5,4.5c-.8,7-1.8,14.3-3,21.8-1.6,11.9-3.6,13.5-4,20.8-.6,9.7-.3,18.2,.2,25v.5h0c-.5-6.9-.8-15.6-.2-25.5,.3-7.3,2.3-8.9,4-20.8Z"/>
          <path class="cls-1" d="M700.6,63.2v.2c-.1,0-.1-.1,0-.2q-.1,0,0,0h0Z"/>
          <path class="cls-1" d="M700.5,63.2h0c-.3-.7-.5-1.4-.6-2.2,.1,.8,.3,1.5,.6,2.2Z"/>
          <path class="cls-1" d="M699.9,59.6l.7,3.6h-.1c-.3-.7-.5-1.4-.6-2.2,0-.4,0-.9,0-1.4Z"/>
          <polygon class="cls-1" points="696.3 335.3 716.2 333.9 725.4 327.4 725.4 327.5 716.2 334 696.3 335.4 672.3 334.6 672.2 334.6 672.5 334.5 696.3 335.3"/>
          <path class="cls-1" d="M674.4,58.1c.5,2.1,.6,4.4,0,6.5l-.7-8.2h0l.1,.1c.3,.5,.5,1.1,.6,1.6Z"/>
          <path class="cls-1" d="M674.5,64.7h0l-9.6,3.5c2.1-1.5,5-2.8,7.7-3.3,.7-.1,1.3-.2,1.9-.2Z"/>
          <path class="cls-1" d="M671.4,10.9l1.9,3.7-4.5,2.3-1.3-2.6c1.1-1.2,2.5-2.4,3.9-3.4Z"/>
          <path class="cls-1" d="M672.1,334.3l.2,.1c-.4,0-.9-.1-1.4-.2,.5,.1,.9,.1,1.2,.1Z"/>
          <path class="cls-1" d="M669.1,6.4l2.3,4.5c-1.4,1.1-2.8,2.2-4,3.5l-2.8-5.6c.2,0,.4,.1,.6,.1,1.7-.1,3.2-1.1,3.9-2.5Z"/>
          <path class="cls-1" d="M664.9,68.2c2.1-1.6,5-2.8,7.7-3.3-2.7,.5-5.6,1.7-7.7,3.3Z"/>
          <path class="cls-1" d="M666.6,331.6c.8,1.2,2.7,2.2,4.2,2.6-1.6-.4-3.5-1.4-4.2-2.6Z"/>
          <path class="cls-1" d="M667,2.2l2.2,4.2c-.7,1.4-2.2,2.4-3.9,2.4-.2,0-.4,0-.6-.1l-2.2-4.2,4.5-2.3Z"/>
          <path class="cls-1" d="M666.3,331.1l5.8,3.2c-.4,0-.8,0-1.2-.1h-.1c-1.6-.4-3.4-1.4-4.2-2.6-.1-.2-.2-.3-.3-.5Z"/>
          <path class="cls-1" d="M662.6,277.1c.1-3.9,.3-44.2,0-47.1-1.9-16.8-.9-23.9-.8-31.8l4.4,133.4c-.7-.4-2.9-7.3-3.6-18-1.2-17.3-.3-21.4,0-36.5Z"/>
          <path class="cls-1" d="M664.6,8.7c-2.1-.3-3.8-2.1-3.8-4.3,0-2.4,2-4.4,4.4-4.4s4.4,2,4.4,4.4c0,.7-.2,1.4-.5,2l-2.2-4.2-4.5,2.3,2.2,4.2Z"/>
          <path class="cls-1" d="M662.5,230c-2.1-18.8-.7-25.5-.8-34.8l.1,3.1c-.1,7.8-1.1,14.9,.7,31.7,.4,2.9,.2,43.2,.1,47.1-.3,15.1-1.2,19.2,0,36.5,.7,10.7,2.9,17.6,3.6,18h-.1c-.6-.4-2.9-7.3-3.6-18-1.2-17.3-.3-21.4,0-36.5,.1-3.8,.3-44.2,0-47.1Z"/>
          <path class="cls-1" d="M661.7,195.2l-.1-2c0,.7,.1,1.3,.1,2Z"/>
          <path class="cls-1" d="M657,163.2l5.1,30.4c-.1-.1-.3-.2-.4-.3v-.2c-.6-.7-.8-1.5-1.4-2.4-3.7-5.5-3.3-8.4-3.7-13.9-.4-5.1-.6-9.4,.4-13.6Z"/>
          <path class="cls-1" d="M661.6,193.2h0c-.6-.7-.8-1.6-1.4-2.4-3.7-5.6-3.3-8.4-3.7-13.9-.4-5.2-.5-9.7,.5-13.9v.2c-1,4.2-.8,8.5-.4,13.6,.4,5.5,0,8.4,3.7,13.9,.6,.9,.8,1.7,1.4,2.4q0,.1-.1,.1c.1,.1,0,0,0,0Z"/>
          <path class="cls-1" d="M652.8,66.4c2.7-.2,7.8,1,12,2h.2l-8,94.4c-5.6,0-10.9-1.5-14.7-5-5.6-5.2-9.8-.9-10.2-30.5-.3-26-3.1-42.9,1.8-50.4,.3-.5,.7-1,1.1-1.5,.2-.2,.3-.4,.5-.6,5.8-6.5,14.7-8.1,17.3-8.4Z"/>
          <path class="cls-1" d="M652.9,66.3c2.6-.2,7.7,.9,12,2v-.1h0l9.7-3.5h-.1v-.1c.6-2.1,.5-4.4,0-6.5-.1-.5-.3-1.1-.6-1.5l.1,.1,26.2,2.9h-.3v1.4c.1,.7,.2,1.5,.5,2.2h0v.1s0,.1,.1,.1v-.2l7.7,4.4-7.7-4.4,8.3,4.7-.1,.3c6.6,3.3,10.8,7.2,13.3,10.3l14.5,4.7,3.2,21.5-8.8,63.8,8.7-63.8-3.2-21.5-14.5-4.7c-2.5-3.1-6.7-7-13.3-10.3-.2-.1-.4-.2-.6-.3l13.6,10.5,9.3,90.1h0l-.1,.1c-.1,0-.3-.1-.4-.1l-11.6,23.1v0l-.3,.6q.1,0,.2,.1h0c0,.3,0,.6-.1,.9l-3.3,32.7c-1,8.3-2.2,17.2-3.5,26.3-1.7,11.9-3.7,13.5-4.1,20.8-.6,10-.3,18.7,.2,25.5l-.4-.2,15.9,22.3-50.9,13.9h-.2v-.2h-.2l-5.8-3.2c.1,.2,.2,.3,.3,.5h-.4l-4.4-133.4c0-1.6,0-3.2-.1-4.9,.1,.1,.2,.2,.4,.3l-5.1-30.4c0-.1,0-.2,.1-.3v-.1h-.1l8-94.4h-.2c-4.2-1-9.3-2.2-11.9-2.1-2.7,.4-11.6,2-17.4,8.5,5.7-6.6,14.8-8.3,17.4-8.5Z"/>
          <path class="cls-1" d="M642.3,157.8c3.8,3.5,9.1,5,14.7,5v.1c-5.6,0-11-1.5-14.7-5.1-5.7-5.1-9.9-.8-10.3-30.4-.4-26.1-3.2-42.9,1.8-50.4,.4-.5,.8-1.1,1.2-1.6-.4,.5-.8,1-1.1,1.5-4.9,7.5-2.1,24.4-1.8,50.4,.4,29.6,4.6,25.3,10.2,30.5Z"/>
        </g>
      </g>
    </g>
  </g>
</svg>