<?xml version="1.0" encoding="UTF-8"?>
<svg id="top" xmlns="http://www.w3.org/2000/svg" viewBox="0 0 402 402">
  <defs>
    <style>
      .cls-1 {
        fill: #fff;
      }

      .cls-2 {
        fill: #d5c69f;
      }

      .cls-3 {
        fill: #a7cbe8;
      }
    </style>
  </defs>
  <path class="cls-3" d="M319.97,321.49l50.78-50.78V130.89l-98.87-98.86H132.06L33.2,130.89v139.82l53.45,53.45,18.5,18.5,26.91,26.92h139.82l29.6-29.6,18.49-18.49Zm81.78-203.65v166.31l-117.6,117.6H117.84L.25,284.15V117.84L117.84,.25h166.31l117.6,117.59Z"/>
  <path class="cls-1" d="M117.64,219.16c8.73,9.69,39.35,42.09,87.11,40.9,49.66-1.24,80.88-38.37,86-44,7.28-9.74,18.75-9.41,28.33-6.89,1.49,.39,8.17,2.14,12,8,2.71,4.15,2.65,8.32,2.85,11.58-2.28,1.08-12.06,6.36-17.78,15.89-6,10-12.83,28.53-12,30,.66-4.21,14-20,21-27,6.37-6.37,21.45-14.15,25.4-16.46,.17,0,.35,0,.53,0,8.38,.06,14.19,5.25,15,6,5.23,4.82,4.27,10.66,4.67,12.89v20.65l-50.78,50.78c-3.86-3.42-6.74-6.48-8.74-8.76-2.19-2.49-3.55-4.3-5-4-1.93,.4-2.67,4.25-3,6-.82,4.24-.21,7.59,0,9,.52,3.56,.53,8.85-2,16l.25,.25-29.6,29.6H132.06l-26.91-26.92,.6-.6c-2.53-7.15-2.52-12.44-2-16,.21-1.41,.81-4.76,0-9-.34-1.75-1.07-5.6-3-6-1.45-.3-2.81,1.51-5,4-2.05,2.33-5.01,5.48-9,9l-.1,.1-53.45-53.45v-18.65h.55c.4-2.23,1.77-8.18,7-13,.81-.74,6.61-5.94,15-6,.77-.01,1.5,.03,2.19,.11,3.89,2.29,17.44,9.52,23.81,15.89,7,7,20.34,22.79,21,27,.83-1.47-6-20-12-30s-15.65-14.89-17.83-15.92c.17-3.18,.25-7.14,2.83-11.08,3.83-5.85,10.51-7.61,12-8,9.58-2.51,22.72-1.74,30,8l-.11,.1Zm158.11,87.9c.35-8.59-5.26-15.01-7-17-8.99-10.29-23.25-9.75-60.87-9.96-1.66-.02-3.37-.03-5.13-.04-41.04-.31-58.25-1.59-65,9-4.89,7.67-5,17-5,17-.08,6.75,2.01,12.05,3,14,5.28,10.42,22.74,11.28,69,12,.72,.01,1.43,.02,2.13,.03,36.62,.55,52.49,.22,61.87-10.03,1.74-1.9,6.68-7.3,7-15Z"/>
  <path class="cls-2" d="M370.75,174.18v75.88c-.4-2.23,.56-8.07-4.67-12.89-.81-.75-6.62-5.94-15-6-.18,0-.36,0-.53,0,.07-.04,.14-.08,.2-.12l-16.6-2.42c-.06,.03-.14,.06-.22,.11-.2-3.26-.14-7.43-2.85-11.58-3.83-5.86-10.51-7.61-12-8-9.58-2.52-21.05-2.85-28.33,6.89-5.12,5.63-36.34,42.76-86,44-47.76,1.19-78.38-31.21-87.11-40.9l.11-.1c-7.28-9.74-20.42-10.51-30-8-1.49,.39-8.17,2.15-12,8-2.58,3.94-2.66,7.9-2.83,11.08-.06-.03-.12-.06-.17-.08l-15,3c.06,.04,.12,.07,.19,.11-.69-.08-1.42-.12-2.19-.11-8.39,.06-14.19,5.26-15,6-5.23,4.82-6.6,10.77-7,13h-.55v-62.42h.46C50.6,111,120.54,52.06,204.25,52.06c78.12,0,144.26,51.34,166.5,122.12Zm-69.78-7.67c.5-12.86,.75-19.3-3.06-23.32-3.93-4.17-10.79-4.78-15.19-1.95l-.77,.25c-.19-.38-.39-.76-.59-1.14v-34.41h0s.01-.01,.01-.01l.95-.18c3.74-2.18,6.24-6.11,6.24-10.6,0-6.85-5.82-12.4-13-12.4s-13,5.55-13,12.4c0,4.49,2.5,8.42,6.24,10.6l.96,.18v17.97c-17.62-19.49-44.21-31.42-67.4-32.26-30.37-1.11-65.74,16.42-80.36,49.63-4.4-2.83-11.25-2.21-15.18,1.95-3.81,4.03-3.56,10.46-3.06,23.33,.51,13.33,.79,20.57,5.1,23.32,2.43,1.55,5.63,1.37,8.54,.03,8.66,36.1,43.41,63.09,84.96,63.09s76.33-27.01,84.97-63.13c2.91,1.34,6.11,1.53,8.54-.02,4.32-2.76,4.59-10,5.1-23.33Z"/>
  <path d="M350.75,231.06c-.06,.04-.13,.08-.2,.12-7.96,.15-11.13,4.97-14.47,2.99-1.72-1.02-2-2.96-2.15-5.42,.08-.05,.16-.08,.22-.11l16.6,2.42Z"/>
  <path d="M350.55,231.18c-3.95,2.31-19.03,10.09-25.4,16.46-7,7-20.34,22.79-21,27-.83-1.47,6-20,12-30,5.72-9.53,15.5-14.81,17.78-15.89,.15,2.46,.43,4.4,2.15,5.42,3.34,1.98,6.51-2.84,14.47-2.99Z"/>
  <path class="cls-2" d="M319.97,321.49l-18.49,18.49-.25-.25c2.53-7.15,2.52-12.44,2-16-.21-1.41-.82-4.76,0-9,.33-1.75,1.07-5.6,3-6,1.45-.3,2.81,1.51,5,4,2,2.28,4.88,5.34,8.74,8.76Z"/>
  <path class="cls-1" d="M117.4,189.9c-2.91,1.34-6.11,1.52-8.54-.03-4.31-2.75-4.59-9.99-5.1-23.32-.5-12.87-.75-19.3,3.06-23.33,3.93-4.16,10.78-4.78,15.18-1.95,14.62-33.21,49.99-50.74,80.36-49.63,23.19,.84,49.78,12.77,67.4,32.26,4.53,5,8.47,10.51,11.6,16.45,.2,.38,.4,.76,.59,1.14l.77-.25c4.4-2.83,11.26-2.22,15.19,1.95,3.81,4.02,3.56,10.46,3.06,23.32-.51,13.33-.78,20.57-5.1,23.33-2.43,1.55-5.63,1.36-8.54,.02-8.64,36.12-43.4,63.13-84.97,63.13s-76.3-26.99-84.96-63.09Zm162.18-18.6c0-27.84-33.82-50.42-75.54-50.42s-75.53,22.58-75.53,50.42,33.82,50.43,75.53,50.43,75.54-22.58,75.54-50.43Z"/>
  <path class="cls-1" d="M288.56,95.15c0,4.49-2.5,8.42-6.24,10.6l-.95,.18h-.01c-1.7,1.17-3.67,1.84-5.8,1.84-1.72,0-3.34-.44-4.79-1.22-.35-.18-.69-.39-1.01-.62l-.96-.18c-3.74-2.18-6.24-6.11-6.24-10.6,0-6.85,5.82-12.4,13-12.4s13,5.55,13,12.4Z"/>
  <path class="cls-1" d="M281.36,105.94v34.41c-3.13-5.94-7.07-11.45-11.6-16.45v-17.97c.32,.23,.66,.44,1.01,.62,1.45,.78,3.07,1.22,4.79,1.22,2.13,0,4.1-.67,5.8-1.83Z"/>
  <path d="M268.75,290.06c1.74,1.99,7.35,8.41,7,17-.32,7.7-5.26,13.1-7,15-9.38,10.25-25.25,10.58-61.87,10.03l.03-2.26c32.83,.49,47.09,.15,55.54-9.08,1.58-1.72,6.05-6.61,6.33-13.57,.32-7.77-4.75-13.58-6.33-15.38-8.09-9.25-20.91-8.83-54.58-9.01v-2.69c37.63,.21,51.89-.33,60.88,9.96Z"/>
  <path class="cls-1" d="M262.45,291.8c1.58,1.8,6.65,7.61,6.33,15.38-.28,6.96-4.75,11.85-6.33,13.57-8.45,9.23-22.71,9.57-55.54,9.08-.77-.02-1.56-.03-2.35-.04-41.85-.65-57.64-1.42-62.42-10.85-.89-1.76-2.79-6.56-2.72-12.67,0,0,.1-8.44,4.53-15.37,6.11-9.59,21.67-8.43,58.8-8.14,1.76,.01,3.47,.02,5.12,.03,33.67,.18,46.49-.24,54.58,9.01Z"/>
  <path d="M204.04,120.88c41.72,0,75.54,22.58,75.54,50.42s-33.82,50.43-75.54,50.43-75.53-22.58-75.53-50.43,33.82-50.42,75.53-50.42Zm-42.31,32.2c6.11-9.97,22.6-10.29,21.56-12.27-1.04-1.97-18.37-3.35-27.29,4.09-4.6,3.84-5.42,8.74-5.86,11.41-.48,2.87-1.38,8.96,3.35,15.72,2.05,2.92,6.52,7.93,8.6,7.53,3.52-.67-7.09-15.5-.36-26.48Z"/>
  <path d="M207.88,280.1v2.69c-1.66-.01-3.37-.02-5.13-.03-37.13-.29-52.69-1.45-58.8,8.14-4.43,6.93-4.53,15.37-4.53,15.37-.07,6.11,1.83,10.91,2.72,12.67,4.78,9.43,20.57,10.2,62.42,10.85,.79,.01,1.58,.02,2.35,.04l-.03,2.26c-.7-.01-1.41-.02-2.13-.03-46.26-.72-63.72-1.58-69-12-.99-1.95-3.08-7.25-3-14,0,0,.11-9.33,5-17,6.75-10.59,23.96-9.31,65-9,1.76,.01,3.47,.02,5.13,.04Z"/>
  <path class="cls-1" d="M183.29,140.81c1.04,1.98-15.45,2.3-21.56,12.27-6.73,10.98,3.88,25.81,.36,26.48-2.08,.4-6.55-4.61-8.6-7.53-4.73-6.76-3.83-12.85-3.35-15.72,.44-2.67,1.26-7.57,5.86-11.41,8.92-7.44,26.25-6.06,27.29-4.09Z"/>
  <path class="cls-2" d="M105.75,342.06l-.6,.6-18.5-18.5,.1-.1c3.99-3.52,6.95-6.67,9-9,2.19-2.49,3.55-4.3,5-4,1.93,.4,2.66,4.25,3,6,.81,4.24,.21,7.59,0,9-.52,3.56-.53,8.85,2,16Z"/>
  <path d="M90.75,246.06c6,10,12.83,28.53,12,30-.66-4.21-14-20-21-27-6.37-6.37-19.92-13.6-23.81-15.89,6.76,.71,9.72,4.72,12.81,2.89,1.84-1.08,2.04-3.22,2.17-5.92,2.18,1.03,12.07,6.32,17.83,15.92Z"/>
  <path d="M72.75,230.06c.05,.02,.11,.05,.17,.08-.13,2.7-.33,4.84-2.17,5.92-3.09,1.83-6.05-2.18-12.81-2.89-.07-.04-.13-.07-.19-.11l15-3Z"/>
</svg>