<?xml version="1.0" encoding="UTF-8"?>
<svg id="inside" xmlns="http://www.w3.org/2000/svg" viewBox="0 0 1366 768">
  <defs>
    <style>
      .cls-1 {
        fill: #f9cd77;
      }

      .cls-2 {
        fill: #e5ad4c;
      }

      .cls-3 {
        fill: #b88d49;
      }

      .cls-4 {
        fill: #d5c69f;
      }

      .cls-5 {
        fill: none;
        stroke: #b88d49;
        stroke-linecap: round;
        stroke-linejoin: round;
        stroke-width: .5px;
      }
    </style>
  </defs>
  <g>
    <path class="cls-3" d="M928.69,335.12c-.08-1.89-.19-3.76-.33-5.63,100.37,26.46,163.58,57.67,160.6,84.59-3.08,27.89-76.46,44.75-186.47,47.81-70.8,1.97-156.78-1.78-248.96-11.98-87.49-9.68-168.26-23.82-234.95-40.1-112.76-27.55-185.3-61.26-182.11-90.06,3.07-27.72,75.57-44.54,184.47-47.74-.6,1.85-1.16,3.69-1.69,5.5-100.8,2.54-146.99,13.08-149.75,37.99-4.56,41.18,165.93,102.87,384,127,218.07,24.13,394.44,4.18,399-37,2.68-24.19-30.69-41.85-123.63-65.9-.04-1.5-.1-3-.18-4.48Z"/>
    <path class="cls-4" d="M928.96,343.03c-.01-.51-.02-1.02-.03-1.52h.57c90.22,23.76,110.68,38.77,108,62.99-4.56,41.18-171.85,47.36-383,24s-374.56-71.82-370-113c2.76-24.93,36.18-33.12,134-36l.16,.04c-.3,1.08-.59,2.16-.87,3.23-52.37,4.41-85.19,14.84-87.19,30.58-2.04,16.13,28.64,34.93,80.49,52.65,57.37,19.6,140.67,37.88,234.23,49.75,112.5,14.26,212.93,15.83,272.75,6.49,34.9-5.44,55.98-14.6,57.57-27.12,1.56-12.22-15.71-25.99-46.76-39.65,.08-2.65,.12-5.3,.12-7.97,0-1.5-.01-2.99-.04-4.47Z"/>
    <path class="cls-1" d="M420.94,272.01c1.14-3.59,2.41-7.25,3.81-10.97,2.1-5.59,3.95-9.61,5.36-12.72l.39,.18c4.44,14.8,12.95,36.1,30.25,57,54.92,66.35,147.35,67.08,158.56,67,23.76-.16,40.68-4.24,56.97-10.35,14.14-3.85,37.52-8.74,66.19-7.13,50.8,2.85,71.38,23.45,111.49,20.43,17.24-1.3,43.49-7.36,75-32.42,.03,1.48,.04,2.97,.04,4.47,0,2.67-.04,5.32-.12,7.97-.7,23.15-4.43,45.54-10.81,66.77-59.82,9.34-160.25,7.77-272.75-6.49-93.56-11.87-176.86-30.15-234.23-49.75-.59-6.13-.98-12.33-1.09-18.5-.15-8.02,.18-15,.23-16.02,.55-11.94,2.3-28.98,7.56-48.71,.28-1.07,.57-2.15,.87-3.23,.2-.67,.39-1.35,.59-2.03,.53-1.81,1.09-3.65,1.69-5.5Z"/>
    <path class="cls-3" d="M928.87,339.6c.03,.63,.05,1.27,.06,1.91,.01,.5,.02,1.01,.03,1.52-31.51,25.06-57.76,31.12-75,32.42-40.11,3.02-60.69-17.58-111.49-20.43-28.67-1.61-52.05,3.28-66.19,7.13,6.54-2.44,12.97-5.21,19.7-8.19l.02,.04c31.64-9.23,57.66-11.27,75.72-11.4,43.78-.31,66.73,10.44,109.52,4.75,20.62-2.74,36.9-8.1,47.45-12.23,.08,1.48,.14,2.98,.18,4.48Z"/>
    <path class="cls-1" d="M928.36,329.49c.14,1.87,.25,3.74,.33,5.63-10.55,4.13-26.83,9.49-47.45,12.23-42.79,5.69-65.74-5.06-109.52-4.75-18.06,.13-44.08,2.17-75.72,11.4l-.02-.04c21.94-9.72,47.06-21.61,89.19-31.46,58.17-13.6,108.21-13.82,140.83-12l.28-.04c.93,6.25,1.63,12.59,2.08,19.03Z"/>
    <path class="cls-2" d="M676.28,362.15c-16.29,6.11-33.21,10.19-56.97,10.35-11.21,.08-103.64-.65-158.56-67-17.3-20.9-25.81-42.2-30.25-57l-.39-.18s.02-.05,.03-.07c0,0,2.69-5.96,7.36-14.75,32.15,35.26,63.62,52.13,85.8,61,78.19,31.26,140.19,2.73,292.97-2,45.64-1.41,82.93-.19,106.73,1l.15-.03c1.24,5.58,2.28,11.24,3.13,16.99l-.28,.04c-32.62-1.82-82.66-1.6-140.83,12-42.13,9.85-67.25,21.74-89.19,31.46-6.73,2.98-13.16,5.75-19.7,8.19Z"/>
    <path class="cls-1" d="M923.15,293.47l-.15,.03c-23.8-1.19-61.09-2.41-106.73-1-152.78,4.73-214.78,33.26-292.97,2-22.18-8.87-53.65-25.74-85.8-61,5.32-10,13.2-23.66,22.61-36.38,11.39-15.39,93.57-109.58,209.39-109.12,107.89,.43,226.32,81.77,253.65,205.47Z"/>
    <path class="cls-1" d="M653.53,449.91c92.18,10.2,178.16,13.95,248.96,11.98-42.28,85.96-130.73,145.11-232.99,145.11-133.39,0-219.54-110.81-238.74-157.64-3.07-7.48-7.93-21.83-12.18-39.55,66.69,16.28,147.46,30.42,234.95,40.1Z"/>
  </g>
  <g>
    <path class="cls-5" d="M902.49,461.89c-42.28,85.96-130.73,145.11-232.99,145.11-133.39,0-219.54-110.81-238.74-157.64-3.07-7.48-7.93-21.83-12.18-39.55"/>
    <path class="cls-5" d="M411.09,366c-.59-6.13-.98-12.33-1.09-18.5-.15-8.02,.18-15,.23-16.02,.55-11.94,2.3-28.98,7.56-48.71,.28-1.07,.57-2.15,.87-3.23,.2-.67,.39-1.35,.59-2.03,.53-1.81,1.09-3.65,1.69-5.5,1.14-3.59,2.41-7.25,3.81-10.97,2.1-5.59,3.95-9.61,5.36-12.72,0-.02,.02-.05,.03-.07,0,0,2.69-5.96,7.36-14.75,5.32-10,13.2-23.66,22.61-36.38,11.39-15.39,93.57-109.58,209.39-109.12,107.89,.43,226.32,81.77,253.65,205.47,1.24,5.58,2.28,11.24,3.13,16.99,.93,6.25,1.63,12.59,2.08,19.03,.14,1.87,.25,3.74,.33,5.63,.08,1.48,.14,2.98,.18,4.48,.03,.63,.05,1.27,.06,1.91,.01,.5,.02,1.01,.03,1.52,.03,1.48,.04,2.97,.04,4.47,0,2.67-.04,5.32-.12,7.97-.7,23.15-4.43,45.54-10.81,66.77"/>
    <path class="cls-5" d="M928,329.39c.12,.03,.24,.06,.36,.1,100.37,26.46,163.58,57.67,160.6,84.59-3.08,27.89-76.46,44.75-186.47,47.81-70.8,1.97-156.78-1.78-248.96-11.98-87.49-9.68-168.26-23.82-234.95-40.1-112.76-27.55-185.3-61.26-182.11-90.06,3.07-27.72,75.57-44.54,184.47-47.74,.09,0,.19-.01,.28-.01"/>
    <path class="cls-5" d="M928,355.08c.3,.13,.59,.26,.88,.39,31.05,13.66,48.32,27.43,46.76,39.65-1.59,12.52-22.67,21.68-57.57,27.12-59.82,9.34-160.25,7.77-272.75-6.49-93.56-11.87-176.86-30.15-234.23-49.75-51.85-17.72-82.53-36.52-80.49-52.65,2-15.74,34.82-26.17,87.19-30.58"/>
    <path class="cls-5" d="M929.5,341.5c90.22,23.77,110.68,38.78,108,63-4.56,41.18-171.85,47.36-383,24s-374.56-71.82-370-113c2.76-24.93,36.18-33.12,134-36"/>
    <path class="cls-5" d="M928.5,339.5c.12,.03,.25,.06,.37,.1,92.94,24.05,126.31,41.71,123.63,65.9-4.56,41.18-180.93,61.13-399,37-218.07-24.13-388.56-85.82-384-127,2.76-24.91,48.95-35.45,149.75-37.99,.08-.01,.17-.01,.25-.01"/>
    <path class="cls-5" d="M430.5,248.5c4.44,14.8,12.95,36.1,30.25,57,54.92,66.35,147.35,67.08,158.56,67,23.76-.16,40.68-4.24,56.97-10.35,6.54-2.44,12.97-5.21,19.7-8.19,21.94-9.72,47.06-21.61,89.19-31.46,58.17-13.6,108.21-13.82,140.83-12"/>
    <path class="cls-5" d="M437.5,233.5c32.15,35.26,63.62,52.13,85.8,61,78.19,31.26,140.19,2.73,292.97-2,45.64-1.41,82.93-.19,106.73,1"/>
    <path class="cls-5" d="M696,354c31.64-9.23,57.66-11.27,75.72-11.4,43.78-.31,66.73,10.44,109.52,4.75,20.62-2.74,36.9-8.1,47.45-12.23,.1-.04,.21-.08,.31-.12"/>
    <path class="cls-5" d="M676,362.23c.09-.03,.18-.05,.28-.08,14.14-3.85,37.52-8.74,66.19-7.13,50.8,2.85,71.38,23.45,111.49,20.43,17.24-1.3,43.49-7.36,75-32.42,0,0,.03-.02,.04-.03"/>
  </g>
</svg>