<?xml version="1.0" encoding="UTF-8"?>
<svg id="Layer_2" data-name="Layer 2" xmlns="http://www.w3.org/2000/svg" viewBox="0 0 768 768">
  <defs>
    <style>
      .cls-1 {
        stroke-linecap: round;
        stroke-linejoin: round;
      }

      .cls-1, .cls-2, .cls-3 {
        stroke: #81f57c;
      }

      .cls-1, .cls-3 {
        fill: none;
      }

      .cls-4, .cls-2 {
        fill: #81f57c;
      }

      .cls-2 {
        opacity: .3;
      }

      .cls-2, .cls-3 {
        stroke-miterlimit: 10;
      }
    </style>
  </defs>
  <rect class="cls-2" x="89.5" y="238.5" width="589" height="206"/>
  <g>
    <g>
      <polygon class="cls-4" points="108.05 221.61 117.08 229.85 79.5 229.85 79.5 266.7 70.5 258.5 70.5 221.5 108.05 221.5 108.05 221.61"/>
      <polygon class="cls-4" points="115.96 453.5 107.39 461.32 107.39 461.43 69.84 461.43 69.84 424.43 79.29 415.82 79.5 415.82 79.5 453.5 115.96 453.5"/>
      <polygon class="cls-4" points="697.41 424.67 697.41 461.67 659.86 461.67 659.86 461.56 651.02 453.5 687.5 453.5 687.5 416.06 687.97 416.06 697.41 424.67"/>
      <polygon class="cls-4" points="696.5 221.5 696.5 258.45 687.89 266.27 687.5 266.27 687.5 229.85 650.35 229.85 650.35 229.37 658.98 221.5 696.5 221.5"/>
    </g>
    <g>
      <polyline class="cls-3" points="178 453.5 115.96 453.5 79.5 453.5 79.5 415.82 79.5 266.7 79.5 229.85 117.08 229.85 650.35 229.85 687.5 229.85 687.5 266.27 687.5 416.06 687.5 453.5 651.02 453.5 599 453.5"/>
      <polygon class="cls-1" points="599 453.5 542.6 461.31 233.08 461.31 178 453.5 599 453.5"/>
      <polyline class="cls-3" points="658.63 221.5 658.98 221.5 696.5 221.5 696.5 258.45 696.5 258.84"/>
      <polyline class="cls-3" points="70.5 258.83 70.5 258.5 70.5 221.5 108.05 221.5 108.45 221.5"/>
      <polyline class="cls-3" points="70.5 258.5 79.5 266.7 79.95 267.11"/>
      <polyline class="cls-3" points="108.05 221.61 117.08 229.85 117.49 230.22"/>
      <polyline class="cls-3" points="697 258 696.5 258.45 687.89 266.27"/>
      <polyline class="cls-3" points="659.79 220.76 658.98 221.5 650.35 229.37"/>
      <polyline class="cls-3" points="697.41 424.34 697.41 424.67 697.41 461.67 659.86 461.67 659.46 461.67"/>
      <line class="cls-3" x1="697.41" y1="424.67" x2="687.97" y2="416.06"/>
      <polyline class="cls-3" points="659.86 461.56 651.02 453.5 650.42 452.95"/>
      <polyline class="cls-3" points="69.84 424.1 69.84 424.43 69.84 461.43 107.39 461.43 107.79 461.43"/>
      <line class="cls-3" x1="69.84" y1="424.43" x2="79.29" y2="415.82"/>
      <polyline class="cls-3" points="107.39 461.32 115.96 453.5 116.83 452.71"/>
      <polygon class="cls-1" points="539.2 222 229.67 222 174.59 229.28 595.59 229.28 539.2 222"/>
    </g>
  </g>
</svg>