<?xml version="1.0" encoding="UTF-8"?>
<svg id="Layer_2" data-name="Layer 2" xmlns="http://www.w3.org/2000/svg" viewBox="0 0 844 557" preserveAspectRatio="none">
  <defs>
    <style>
      .cls-1 {
        stroke-linecap: round;
        stroke-linejoin: round;
      }

      .cls-1, .cls-2, .cls-3 {
        stroke: #81f57c;
      }

      .cls-1, .cls-3 {
        fill: none;
      }

      .cls-4, .cls-2 {
        fill: #81f57c;
      }

      .cls-2 {
        opacity: .3;
      }

      .cls-2, .cls-3 {
        stroke-miterlimit: 10;
      }
    </style>
  </defs>
  <rect class="cls-2" x="77.5" y="25.56" width="697" height="501.06"/>
  <g>
    <g>
      <polygon class="cls-4" points="761.18 544.83 750.46 534.36 750.46 534.04 781.7 534.04 781.7 504.94 791.5 514.52 791.5 544.5 761.5 544.5 761.18 544.83"/>
      <polygon class="cls-4" points="59.5 544.5 59.5 514.52 69.3 504.94 69.3 534.04 100.55 534.04 100.55 534.46 89.88 544.88 89.5 544.5 59.5 544.5"/>
      <polygon class="cls-4" points="750.64 19.33 761.11 9.1 761.5 9.5 791.5 9.5 791.5 39.48 781.7 49.07 781.7 19.33 750.64 19.33"/>
      <polygon class="cls-4" points="69.3 19.33 69.3 49.07 59.5 39.48 59.5 9.5 89.5 9.5 89.51 9.49 99.86 19.33 69.3 19.33"/>
    </g>
    <g>
      <polyline class="cls-3" points="186.17 534.04 100.55 534.04 69.3 534.04 69.3 504.94 69.3 49.07 69.3 19.33 99.86 19.33 750.64 19.33 781.7 19.33 781.7 49.07 781.7 504.94 781.7 534.04 750.46 534.04 676.51 534.04"/>
      <line class="cls-1" x1="676.51" y1="534.04" x2="186.17" y2="534.04"/>
      <polygon class="cls-1" points="676.51 534.04 611.92 540.15 249.25 540.15 186.17 534.04 184.72 533.9 678 533.9 676.51 534.04"/>
      <polyline class="cls-3" points="59.5 39.5 59.5 39.48 59.5 9.5 89.5 9.5"/>
      <polyline class="cls-3" points="59 39 59.5 39.48 69.3 49.07 69.71 49.47"/>
      <polyline class="cls-3" points="89 9 89.51 9.49 99.86 19.33 99.93 19.4"/>
      <polygon class="cls-1" points="607.93 13 245.26 13 180.72 19.25 674.01 19.25 607.93 13"/>
      <polyline class="cls-1" points="791.5 39.5 791.5 39.48 791.5 9.5 761.5 9.5"/>
      <polyline class="cls-1" points="792 39 791.5 39.48 781.7 49.07 781.29 49.47"/>
      <polyline class="cls-1" points="761.3 8.91 761.11 9.1 750.64 19.33 750.58 19.39"/>
      <polyline class="cls-1" points="791.5 514.5 791.5 514.52 791.5 544.5 761.5 544.5"/>
      <polyline class="cls-1" points="792 515 791.5 514.52 781.7 504.94 781.29 504.54"/>
      <line class="cls-1" x1="761.18" y1="544.83" x2="750.46" y2="534.36"/>
      <polyline class="cls-1" points="59.5 514.5 59.5 514.52 59.5 544.5 89.5 544.5"/>
      <polyline class="cls-1" points="59 515 59.5 514.52 69.3 504.94 69.71 504.54"/>
      <polyline class="cls-1" points="89.84 544.92 89.88 544.88 100.55 534.46"/>
    </g>
  </g>
</svg>